#!OML:ASF H:\BabyWalks\Project 1\Capture day 1\Session 1\baby.ASF
:FULLY-SPECIFIED
:DEGREES
762
root 25.5279 17.5462 0.104442 5.45646 104.081 -2.45591
lowerback 19.4259 -0.919368 2.13787
upperback 6.91196 -0.18064 1.64242
thorax -3.42432 0.141226 0.55555
lowerneck 0.108111 -3.95252 2.97287
upperneck -2.49532 -5.30674 -2.80514
head -0.951682 -2.64957 -1.31406
rclavicle 2.38542e-015 -3.18055e-015
rhumerus -44.9757 5.13944 -79.2635
rradius 43.7365
rwrist -4.25971
rhand -11.8229 -16.2879
rfingers 7.12502
rthumb 14.2277 -45.7806
lclavicle 2.38542e-015 -3.18055e-015
lhumerus -44.2452 -3.24667 78.2076
lradius 51.2905
lwrist 0.070864
lhand -3.25035 8.76305
lfingers 7.12502
lthumb 22.4737 37.4754
rfemur -30.0532 -0.383721 18.3775
rtibia 35.9988
rfoot -11.6689 -9.83947
rtoes 1.95289
lfemur 8.78902 -5.90898 -13.6168
ltibia -2.22639e-014
lfoot -19.5621 -4.48216
ltoes -6.38262
763
root 25.5245 17.5466 0.102925 5.39433 104.131 -2.48655
lowerback 19.4131 -0.912272 2.13609
upperback 6.91344 -0.172304 1.6381
thorax -3.4161 0.145483 0.550066
lowerneck 0.082597 -3.94849 2.96502
upperneck -2.49298 -5.30151 -2.78237
head -0.945449 -2.64732 -1.30612
rclavicle -1.19271e-014 -1.59028e-015
rhumerus -44.972 5.14208 -79.2833
rradius 43.7495
rwrist -4.25865
rhand -11.821 -16.278
rfingers 7.12502
rthumb 14.2295 -45.7706
lclavicle -1.19271e-014 -1.59028e-015
lhumerus -44.2504 -3.28806 78.2573
lradius 51.2892
lwrist 0.0775882
lhand -3.22011 8.75926
lfingers 7.12502
lthumb 22.5027 37.4681
rfemur -30.0131 -0.398673 18.3551
rtibia 35.9872
rfoot -11.6594 -9.87631
rtoes 1.9404
lfemur 8.79952 -5.96239 -13.6328
ltibia -6.36111e-015
lfoot -19.5457 -4.48707
ltoes -6.35763
764
root 25.521 17.547 0.101445 5.33108 104.179 -2.51925
lowerback 19.4011 -0.905625 2.13321
upperback 6.91467 -0.164788 1.63313
thorax -3.40853 0.149313 0.544699
lowerneck 0.0633733 -3.94501 2.96239
upperneck -2.4958 -5.29701 -2.76532
head -0.942275 -2.64536 -1.3007
rclavicle -2.14687e-014 1.27222e-014
rhumerus -44.9638 5.15172 -79.3071
rradius 43.7598
rwrist -4.25568
rhand -11.8175 -16.2684
rfingers 7.12502
rthumb 14.2329 -45.7608
lclavicle -2.14687e-014 1.27222e-014
lhumerus -44.26 -3.32308 78.3019
lradius 51.2897
lwrist 0.0851498
lhand -3.19413 8.75684
lfingers 7.12502
lthumb 22.5276 37.4626
rfemur -29.9758 -0.41217 18.3324
rtibia 35.9769
rfoot -11.6492 -9.9132
rtoes 1.92777
lfemur 8.80972 -6.01338 -13.6495
ltibia -6.36111e-015
lfoot -19.5312 -4.49108
ltoes -6.33718
765
root 25.5174 17.5474 0.0999434 5.2829 104.225 -2.53707
lowerback 19.3885 -0.900165 2.13244
upperback 6.91689 -0.158306 1.62955
thorax -3.39964 0.15269 0.539836
lowerneck 0.0484546 -3.94034 2.9646
upperneck -2.50382 -5.29099 -2.75482
head -0.941789 -2.64258 -1.29807
rclavicle -8.74653e-015 -4.69132e-014
rhumerus -44.9508 5.17088 -79.3341
rradius 43.7697
rwrist -4.25556
rhand -11.8199 -16.2609
rfingers 7.12502
rthumb 14.2306 -45.7534
lclavicle -8.74653e-015 -4.69132e-014
lhumerus -44.2715 -3.34504 78.3413
lradius 51.2917
lwrist 0.0912381
lhand -3.17264 8.75579
lfingers 7.12502
lthumb 22.5483 37.4591
rfemur -29.9396 -0.424702 18.3139
rtibia 35.9666
rfoot -11.6408 -9.94833
rtoes 1.916
lfemur 8.82013 -6.06182 -13.6625
ltibia -3.18055e-015
lfoot -19.5187 -4.49447
ltoes -6.32062
766
root 25.5138 17.5477 0.0984479 5.24543 104.269 -2.54417
lowerback 19.3766 -0.89539 2.13449
upperback 6.91864 -0.152193 1.626
thorax -3.39159 0.155892 0.533495
lowerneck 0.0414221 -3.93646 2.96556
upperneck -2.51396 -5.28589 -2.74511
head -0.943319 -2.64018 -1.29529
rclavicle -1.78906e-014 -3.73715e-014
rhumerus -44.9361 5.19342 -79.3635
rradius 43.7795
rwrist -4.25477
rhand -11.8236 -16.2565
rfingers 7.12502
rthumb 14.227 -45.7492
lclavicle -1.78906e-014 -3.73715e-014
lhumerus -44.2866 -3.35842 78.3744
lradius 51.2947
lwrist 0.0942812
lhand -3.1538 8.75382
lfingers 7.12502
lthumb 22.5664 37.4549
rfemur -29.9034 -0.437778 18.299
rtibia 35.955
rfoot -11.6314 -9.9836
rtoes 1.91152
lfemur 8.83077 -6.10841 -13.6727
ltibia 0
lfoot -19.5076 -4.49772
ltoes -6.30811
